<?xml version="1.0" standalone="no"?><!DOCTYPE svg PUBLIC "-//W3C//DTD SVG 1.1//EN" "http://www.w3.org/Graphics/SVG/1.1/DTD/svg11.dtd"><svg t="1573121116806" class="icon" viewBox="0 0 1024 1024" version="1.1" xmlns="http://www.w3.org/2000/svg" p-id="878" xmlns:xlink="http://www.w3.org/1999/xlink" width="200" height="200"><defs><style type="text/css"></style></defs><path d="M947.104 409.608v168.663H795.768c-7.305 0-12.332 1.515-15.082 4.555-2.707 3.051-4.082 7.605-4.082 13.675v23.708c0 4.866-1.977 9.12-5.93 12.772-3.953 3.642-8.98 6.069-15.039 7.294-6.059 1.214-12.762 0.902-20.066-0.913-7.305-1.826-14.266-6.08-20.969-12.762-17.617-17.026-35.707-36.48-54.227-58.352-18.563-21.893-35.707-41.637-51.52-59.265-3.652-4.254-5.156-10.033-4.555-17.327s3.309-13.675 8.207-19.143c16.414-19.454 33.73-38.597 51.949-57.438l60.156-59.265c3.051-3.04 7.477-5.017 13.234-5.93a65.94 65.94 0 0 1 17.316-0.451c5.801 0.602 10.785 2.127 15.039 4.555 4.297 2.428 6.402 5.167 6.402 8.207v13.675c0 6.08 1.375 13.224 4.082 21.42 2.75 8.207 9.582 12.321 20.539 12.321h145.882v0.001zM91.896 578.271V409.608h145.879c10.313 0 17.016-2.288 20.066-6.843 3.008-4.565 4.555-9.883 4.555-15.952v-14.599c0-7.283 2.105-12.912 6.359-16.854 4.254-3.953 9.281-6.392 15.039-7.305 5.801-0.902 11.559-0.602 17.359 0.913 5.758 1.525 10.141 3.803 13.191 6.843l60.199 59.265c18.219 18.842 35.535 37.984 51.949 57.438 4.855 5.468 7.605 11.849 8.207 19.143s-1.203 13.073-5.457 17.327c-15.813 17.628-33 37.372-51.52 59.265-18.563 21.871-36.609 41.325-54.27 58.352-6.66 6.682-13.664 11.236-20.969 13.675-7.262 2.428-13.793 3.04-19.594 1.815-5.758-1.214-10.613-4.104-14.566-8.658s-5.93-10.785-5.93-18.691v-23.708c0-6.069-1.375-9.722-4.125-10.936-2.707-1.214-8.035-1.826-15.941-1.826H91.896v-0.001z m741.211-454.953c15.813 0 30.551 3.04 44.258 9.12 13.664 6.069 25.652 14.287 36.008 24.61 10.313 10.334 18.52 22.333 24.621 36.019 6.059 13.675 9.109 28.413 9.109 44.215v113.975H833.107V237.282H547.752v513.305h285.355V636.623h113.996v113.964c0 15.802-3.051 30.551-9.109 44.215-6.102 13.686-14.309 25.685-24.621 36.019-10.355 10.334-22.344 18.541-36.008 24.621-13.707 6.069-28.445 9.109-44.258 9.109H205.85c-15.813 0-30.551-3.04-44.215-9.109-13.664-6.08-25.695-14.287-36.008-24.621-10.355-10.334-18.563-22.333-24.621-36.019-6.059-13.664-9.109-28.413-9.109-44.215V636.623H205.85v113.964h285.398V237.282H205.85v113.975H91.896V237.282c0-15.802 3.051-30.54 9.109-44.215 6.059-13.686 14.266-25.685 24.621-36.019 10.313-10.323 22.344-18.541 36.008-24.61 13.664-6.08 28.402-9.12 44.215-9.12h627.258z m0 0" fill="#ffffff" p-id="879"></path></svg>